<svg xmlns="http://www.w3.org/2000/svg" viewBox="0 0 800 340" preserveAspectRatio="xMidYMid slice"><defs>
<linearGradient id="sky" x1="0" y1="0" x2="0" y2="1">
<stop offset="0" stop-color="#0d1b4f"/><stop offset=".38" stop-color="#26357f"/>
<stop offset=".66" stop-color="#5a3f8f"/><stop offset=".86" stop-color="#c0607a"/><stop offset="1" stop-color="#f29a5c"/></linearGradient>
<radialGradient id="sun" cx=".78" cy=".98" r=".45"><stop offset="0" stop-color="#ffc178" stop-opacity=".95"/>
<stop offset=".35" stop-color="#ff9a62" stop-opacity=".45"/><stop offset="1" stop-color="#ff9a62" stop-opacity="0"/></radialGradient>
<linearGradient id="far" x1="0" y1="0" x2="0" y2="1"><stop offset="0" stop-color="#2a2f63"/><stop offset="1" stop-color="#1b1f47"/></linearGradient>
</defs><rect width="800" height="340" fill="url(#sky)"/><rect width="800" height="340" fill="url(#sun)"/><circle cx="331" cy="23" r="1" fill="#fff" opacity="0.7"/><circle cx="49" cy="13" r="1.2" fill="#fff" opacity="0.35"/><circle cx="374" cy="78" r="0.8" fill="#fff" opacity="0.7"/><circle cx="219" cy="8" r="0.8" fill="#fff" opacity="0.5"/><circle cx="428" cy="12" r="0.8" fill="#fff" opacity="0.35"/><circle cx="564" cy="58" r="0.8" fill="#fff" opacity="0.7"/><circle cx="126" cy="32" r="1.2" fill="#fff" opacity="0.7"/><circle cx="596" cy="11" r="1.2" fill="#fff" opacity="0.7"/><circle cx="406" cy="10" r="0.8" fill="#fff" opacity="0.35"/><circle cx="570" cy="113" r="0.8" fill="#fff" opacity="0.5"/><circle cx="429" cy="22" r="1.2" fill="#fff" opacity="0.35"/><circle cx="584" cy="43" r="1.2" fill="#fff" opacity="0.7"/><circle cx="185" cy="17" r="1.2" fill="#fff" opacity="0.7"/><circle cx="654" cy="28" r="1" fill="#fff" opacity="0.35"/><circle cx="560" cy="95" r="0.8" fill="#fff" opacity="0.7"/><circle cx="61" cy="83" r="0.8" fill="#fff" opacity="0.5"/><circle cx="696" cy="72" r="1" fill="#fff" opacity="0.5"/><circle cx="476" cy="78" r="1" fill="#fff" opacity="0.5"/><circle cx="306" cy="35" r="0.8" fill="#fff" opacity="0.7"/><circle cx="798" cy="35" r="0.8" fill="#fff" opacity="0.7"/><circle cx="307" cy="71" r="1" fill="#fff" opacity="0.5"/><circle cx="746" cy="61" r="1" fill="#fff" opacity="0.7"/><circle cx="74" cy="19" r="1.2" fill="#fff" opacity="0.5"/><circle cx="168" cy="100" r="1" fill="#fff" opacity="0.35"/><circle cx="500" cy="57" r="0.8" fill="#fff" opacity="0.7"/><circle cx="79" cy="101" r="1.2" fill="#fff" opacity="0.7"/><g fill="url(#far)" opacity=".85"><rect x="0" y="267" width="41" height="73"/><rect x="45" y="281" width="34" height="59"/><rect x="83" y="264" width="56" height="76"/><rect x="143" y="266" width="30" height="74"/><rect x="173" y="288" width="56" height="52"/><rect x="233" y="292" width="40" height="48"/><rect x="278" y="270" width="56" height="70"/><rect x="340" y="279" width="56" height="61"/><rect x="401" y="290" width="35" height="50"/><rect x="441" y="249" width="35" height="91"/><rect x="480" y="257" width="50" height="83"/><rect x="530" y="294" width="30" height="46"/><rect x="566" y="285" width="28" height="55"/><rect x="600" y="252" width="27" height="88"/><rect x="633" y="274" width="43" height="66"/><rect x="680" y="259" width="50" height="81"/><rect x="736" y="279" width="53" height="61"/><rect x="794" y="245" width="54" height="95"/></g><g fill="#ffcf8a" opacity=".55"><rect x="463" y="331" width="3" height="4"/><rect x="799" y="319" width="3" height="4"/><rect x="462" y="325" width="3" height="4"/><rect x="601" y="284" width="3" height="4"/><rect x="189" y="325" width="3" height="4"/><rect x="487" y="283" width="3" height="4"/><rect x="96" y="317" width="3" height="4"/><rect x="310" y="278" width="3" height="4"/><rect x="92" y="328" width="3" height="4"/><rect x="710" y="265" width="3" height="4"/><rect x="609" y="310" width="3" height="4"/><rect x="463" y="280" width="3" height="4"/><rect x="638" y="261" width="3" height="4"/><rect x="541" y="268" width="3" height="4"/><rect x="60" y="264" width="3" height="4"/><rect x="194" y="290" width="3" height="4"/><rect x="614" y="263" width="3" height="4"/><rect x="796" y="319" width="3" height="4"/><rect x="334" y="316" width="3" height="4"/><rect x="605" y="285" width="3" height="4"/><rect x="531" y="289" width="3" height="4"/><rect x="655" y="297" width="3" height="4"/><rect x="511" y="260" width="3" height="4"/><rect x="678" y="270" width="3" height="4"/><rect x="468" y="295" width="3" height="4"/><rect x="416" y="330" width="3" height="4"/><rect x="85" y="292" width="3" height="4"/><rect x="322" y="289" width="3" height="4"/><rect x="525" y="296" width="3" height="4"/><rect x="30" y="268" width="3" height="4"/><rect x="576" y="273" width="3" height="4"/><rect x="410" y="273" width="3" height="4"/><rect x="297" y="309" width="3" height="4"/><rect x="68" y="262" width="3" height="4"/><rect x="701" y="260" width="3" height="4"/><rect x="218" y="286" width="3" height="4"/><rect x="53" y="320" width="3" height="4"/><rect x="384" y="310" width="3" height="4"/><rect x="429" y="269" width="3" height="4"/><rect x="579" y="285" width="3" height="4"/><rect x="797" y="294" width="3" height="4"/><rect x="344" y="271" width="3" height="4"/><rect x="318" y="302" width="3" height="4"/><rect x="15" y="312" width="3" height="4"/><rect x="776" y="275" width="3" height="4"/><rect x="137" y="291" width="3" height="4"/><rect x="723" y="272" width="3" height="4"/><rect x="11" y="267" width="3" height="4"/><rect x="476" y="322" width="3" height="4"/><rect x="181" y="331" width="3" height="4"/><rect x="192" y="317" width="3" height="4"/><rect x="521" y="284" width="3" height="4"/><rect x="749" y="276" width="3" height="4"/><rect x="429" y="309" width="3" height="4"/><rect x="119" y="310" width="3" height="4"/><rect x="430" y="287" width="3" height="4"/><rect x="0" y="294" width="3" height="4"/><rect x="606" y="298" width="3" height="4"/><rect x="20" y="286" width="3" height="4"/><rect x="191" y="310" width="3" height="4"/></g><g fill="#11163a" opacity=".95"><rect x="470" y="236" width="118" height="104"/></g><g stroke="#2b3270" stroke-width="2"><line x1="470" y1="244" x2="588" y2="244"/><line x1="470" y1="260" x2="588" y2="260"/><line x1="470" y1="276" x2="588" y2="276"/><line x1="470" y1="292" x2="588" y2="292"/><line x1="470" y1="308" x2="588" y2="308"/><line x1="470" y1="324" x2="588" y2="324"/><line x1="478" y1="236" x2="478" y2="340"/><line x1="500" y1="236" x2="500" y2="340"/><line x1="522" y1="236" x2="522" y2="340"/><line x1="544" y1="236" x2="544" y2="340"/><line x1="566" y1="236" x2="566" y2="340"/></g><g stroke="#0a0f2c" stroke-width="2.6" stroke-linecap="round" fill="none"><line x1="626" y1="96" x2="626" y2="340"/><line x1="650" y1="96" x2="650" y2="340"/><line x1="626" y1="96" x2="650" y2="118"/><line x1="626" y1="96" x2="650" y2="96"/><line x1="650" y1="118" x2="626" y2="140"/><line x1="626" y1="118" x2="650" y2="118"/><line x1="626" y1="140" x2="650" y2="162"/><line x1="626" y1="140" x2="650" y2="140"/><line x1="650" y1="162" x2="626" y2="184"/><line x1="626" y1="162" x2="650" y2="162"/><line x1="626" y1="184" x2="650" y2="206"/><line x1="626" y1="184" x2="650" y2="184"/><line x1="650" y1="206" x2="626" y2="228"/><line x1="626" y1="206" x2="650" y2="206"/><line x1="626" y1="228" x2="650" y2="250"/><line x1="626" y1="228" x2="650" y2="228"/><line x1="650" y1="250" x2="626" y2="272"/><line x1="626" y1="250" x2="650" y2="250"/><line x1="626" y1="272" x2="650" y2="294"/><line x1="626" y1="272" x2="650" y2="272"/><line x1="650" y1="294" x2="626" y2="316"/><line x1="626" y1="294" x2="650" y2="294"/><line x1="626" y1="316" x2="650" y2="338"/><line x1="626" y1="316" x2="650" y2="316"/><line x1="650" y1="338" x2="626" y2="340"/><line x1="626" y1="338" x2="650" y2="338"/><line x1="372" y1="96" x2="800" y2="96"/><line x1="412" y1="84" x2="800" y2="84"/><line x1="412" y1="84" x2="430" y2="96"/><line x1="430" y1="96" x2="448" y2="84"/><line x1="448" y1="84" x2="466" y2="96"/><line x1="466" y1="96" x2="484" y2="84"/><line x1="484" y1="84" x2="502" y2="96"/><line x1="502" y1="96" x2="520" y2="84"/><line x1="520" y1="84" x2="538" y2="96"/><line x1="538" y1="96" x2="556" y2="84"/><line x1="556" y1="84" x2="574" y2="96"/><line x1="574" y1="96" x2="592" y2="84"/><line x1="592" y1="84" x2="610" y2="96"/><line x1="610" y1="96" x2="628" y2="84"/><line x1="628" y1="84" x2="646" y2="96"/><line x1="646" y1="96" x2="664" y2="84"/><line x1="664" y1="84" x2="682" y2="96"/><line x1="682" y1="96" x2="700" y2="84"/><line x1="700" y1="84" x2="718" y2="96"/><line x1="718" y1="96" x2="736" y2="84"/><line x1="736" y1="84" x2="754" y2="96"/><line x1="754" y1="96" x2="772" y2="84"/><line x1="772" y1="84" x2="790" y2="96"/><line x1="790" y1="96" x2="800" y2="84"/><line x1="372" y1="96" x2="412" y2="84"/><line x1="626" y1="96" x2="638" y2="40"/><line x1="650" y1="96" x2="638" y2="40"/><line x1="638" y1="40" x2="432" y2="84"/><line x1="638" y1="40" x2="790" y2="84"/></g><g fill="#0a0f2c"><rect x="742" y="96" width="44" height="22" rx="2"/><rect x="612" y="98" width="20" height="18" rx="2"/><rect x="604" y="330" width="68" height="10"/></g><g fill="#0a0f2c" stroke="#0a0f2c" stroke-width="1.6"><rect x="456" y="96" width="16" height="6"/><line x1="464" y1="102" x2="464" y2="196"/><rect x="448" y="196" width="32" height="14" rx="1.5"/></g><circle cx="638" cy="38" r="3.2" fill="#ff5a3c"/><circle cx="638" cy="38" r="8" fill="#ff5a3c" opacity=".25"/></svg>